<svg width="740" height="350" viewBox="0 0 740 350" fill="none" xmlns="http://www.w3.org/2000/svg">
<path d="M290.303 325.602L311.99 409.019L101.613 385.659C67.8869 382.204 47.7068 367.719 41.0732 342.203C34.4395 316.687 44.597 293.965 71.5458 274.037L244.122 147.973L265.809 231.39C249.93 242.852 218.104 262.826 170.33 291.311C160.301 297.062 145.59 306.299 126.198 319.024C134.075 319.77 153.797 320.405 185.365 320.929C208.898 321.446 243.877 323.004 290.303 325.602ZM343.373 428.624L371.318 90.8066L454.735 69.1197L425.809 407.192L343.373 428.624ZM531.518 262.89C570.799 238.01 600.427 219.655 620.402 207.827C648.044 191.909 665.123 181.707 671.64 177.218C648.505 175.55 630.995 174.689 619.107 174.637C563.509 173.026 526.148 171.04 507.024 168.678L485.337 85.261L696.97 111.438C730.539 115.632 750.641 130.487 757.275 156.003C763.908 181.518 753.338 203.998 725.565 223.442L553.205 346.307L531.518 262.89Z" fill="url(#paint0_linear_7_102)" fill-opacity="0.19"/>
<defs>
<linearGradient id="paint0_linear_7_102" x1="-40.267" y1="517.619" x2="780.416" y2="75.134" gradientUnits="userSpaceOnUse">
<stop stop-color="white"/>
<stop offset="1" stop-color="white" stop-opacity="0"/>
</linearGradient>
</defs>
</svg>
