<svg width="443" height="361" viewBox="0 0 443 361" fill="none" xmlns="http://www.w3.org/2000/svg">
<path d="M76.6307 92.0532C76.6307 106.833 81.6109 114.223 91.5713 114.223H198.565C223.948 114.223 245.475 123.22 263.147 141.213C281.14 159.206 290.136 180.893 290.136 206.276V213.024C290.136 238.407 281.14 260.095 263.147 278.088C245.475 296.081 223.948 305.077 198.565 305.077H23.1338V228.446H198.565C202.742 228.446 206.276 227 209.168 224.109C212.381 220.896 213.988 217.201 213.988 213.024C213.988 198.244 208.847 190.854 198.565 190.854H91.5713C66.5097 190.854 44.9824 181.857 26.9894 163.864C8.99648 145.871 0 124.184 0 98.8006V92.0532C0 66.6703 8.99648 44.9824 26.9894 26.9894C44.9824 8.99648 66.5097 0 91.5713 0H213.988V76.6307H91.5713C87.7157 76.6307 84.1813 78.2372 80.9683 81.4502C78.0766 84.342 76.6307 87.8763 76.6307 92.0532Z" fill="#FCFCFC"/>
<path fill-rule="evenodd" clip-rule="evenodd" d="M400.02 92.8217C371.745 62.9406 337.526 48 297.363 48C265.688 48 237.567 57.4435 213 76.3305C239.928 88.8902 263.124 105.951 280.949 126.211C286.172 124.836 291.643 124.149 297.363 124.149C316.32 124.149 332.546 131.699 346.041 146.801C359.536 161.581 366.283 179.413 366.283 200.298V215.238H319.453C319.65 218.242 319.75 221.266 319.75 224.308C319.75 248.112 313.642 270.783 302.603 291.387H366.283V360.306H442.432V200.298C442.432 158.207 428.294 122.382 400.02 92.8217Z" fill="#FCFCFC"/>
<path d="M73.0881 274.44L53.6001 265.848V262.2L73.0881 253.608V257.16L57.1521 263.832V264.12L73.0881 270.936V274.44Z" fill="#002663"/>
<path d="M87.952 284.184L102.496 243H106L91.456 284.184H87.952Z" fill="#002663"/>
<path d="M120.896 274.44V270.936L136.832 264.12V263.832L120.896 257.16V253.608L140.384 262.2V265.848L120.896 274.44Z" fill="#002663"/>
</svg>
