<svg width="443" height="361" viewBox="0 0 443 361" fill="none" xmlns="http://www.w3.org/2000/svg">
<path d="M76.6307 92.3595C76.6307 107.139 81.6109 114.529 91.5713 114.529H198.565C223.948 114.529 245.475 123.526 263.147 141.519C281.14 159.512 290.136 181.2 290.136 206.583V213.33C290.136 238.713 281.14 260.401 263.147 278.394C245.475 296.387 223.948 305.383 198.565 305.383H23.1338V228.753H198.565C202.742 228.753 206.276 227.307 209.168 224.415C212.381 221.202 213.988 217.507 213.988 213.33C213.988 198.55 208.847 191.16 198.565 191.16H91.5713C66.5097 191.16 44.9824 182.164 26.9894 164.171C8.99648 146.178 0 124.49 0 99.1069V92.3595C0 66.9766 8.99648 45.2887 26.9894 27.2957C44.9824 9.30275 66.5097 0.306274 91.5713 0.306274H213.988V76.937H91.5713C87.7157 76.937 84.1813 78.5435 80.9683 81.7565C78.0766 84.6482 76.6307 88.1826 76.6307 92.3595Z" fill="#002663"/>
<path fill-rule="evenodd" clip-rule="evenodd" d="M400.02 93.128C371.745 63.2469 337.526 48.3063 297.363 48.3063C265.688 48.3063 237.567 57.7498 213 76.6367C239.928 89.1965 263.124 106.257 280.949 126.518C286.172 125.143 291.643 124.455 297.363 124.455C316.32 124.455 332.546 132.006 346.041 147.107C359.536 161.887 366.283 179.719 366.283 200.604V215.544H319.453C319.65 218.548 319.75 221.572 319.75 224.615C319.75 248.418 313.642 271.089 302.603 291.693H366.283V360.613H442.432V200.604C442.432 158.513 428.294 122.688 400.02 93.128Z" fill="#002663"/>
<path d="M73.0881 274.746L53.6001 266.154V262.506L73.0881 253.914V257.466L57.1521 264.138V264.426L73.0881 271.242V274.746Z" fill="#FDCA40"/>
<path d="M87.952 284.49L102.496 243.306H106L91.456 284.49H87.952Z" fill="#FDCA40"/>
<path d="M120.896 274.746V271.242L136.832 264.426V264.138L120.896 257.466V253.914L140.384 262.506V266.154L120.896 274.746Z" fill="#FDCA40"/>
</svg>
